<?xml version="1.0" encoding="UTF-8"?>
<svg version="1.1" xmlns="http://www.w3.org/2000/svg" width="1591" height="2093">
<path d="M0 0 C11.82408743 20.64162271 17.36367128 41.41990532 11.45703125 65.18457031 C-0.32433415 108.01396076 -36.09244464 142.12792346 -66.5 172.625 C-67.0126944 173.14037323 -67.52538879 173.65574646 -68.05361938 174.18673706 C-73.3142994 179.46830493 -78.61400903 184.64720061 -84.27929688 189.49755859 C-86.81776457 191.71403563 -89.14541037 194.08867327 -91.5 196.5 C-95.25149794 200.30869334 -99.10589769 203.91966876 -103.171875 207.390625 C-105.6076653 209.53495321 -107.8545078 211.84210381 -110.1262207 214.1574707 C-111.9328822 215.93400156 -113.79380836 217.59467736 -115.71484375 219.24609375 C-119.9329271 222.91403443 -124.00693622 226.71659995 -128.0625 230.5625 C-129.56224934 231.97943202 -131.0622541 233.39609374 -132.5625 234.8125 C-133.30757813 235.51632812 -134.05265625 236.22015625 -134.8203125 236.9453125 C-138.0567538 239.99615143 -141.30863277 243.03027049 -144.5625 246.0625 C-145.78907909 247.20701347 -147.01564151 248.35154481 -148.2421875 249.49609375 C-150.16443514 251.28928053 -152.08759704 253.08145547 -154.01269531 254.87158203 C-161.87467083 262.18318195 -169.65239463 269.53833332 -177.15625 277.21875 C-179.28747259 279.30313253 -181.4212831 281.24759169 -183.67944336 283.18383789 C-187.94894004 286.90588378 -191.97465365 290.82994788 -195.97265625 294.83984375 C-196.69940048 295.56563126 -197.42614471 296.29141876 -198.1749115 297.03919983 C-199.69962296 298.56323556 -201.2230915 300.08851569 -202.74536133 301.61499023 C-205.05633891 303.93132463 -207.37260771 306.24227078 -209.68945312 308.55273438 C-211.1800082 310.04395034 -212.670253 311.53547653 -214.16015625 313.02734375 C-215.18388084 314.048032 -215.18388084 314.048032 -216.22828674 315.08934021 C-220.13478564 319.01465749 -223.86199455 323.04171428 -227.46665955 327.24647522 C-229.69512765 329.79494646 -232.07760813 332.13460559 -234.5 334.5 C-238.18149581 338.13224294 -241.70007744 341.84033166 -245.05859375 345.7734375 C-247.64482249 348.73953485 -250.32269355 351.61621115 -253 354.5 C-257.41529594 359.26619826 -261.76705702 364.07027629 -266 369 C-266.92442929 370.07035558 -267.84891358 371.14066365 -268.7734375 372.2109375 C-274.13419733 378.42873328 -279.44256208 384.68106401 -284.61328125 391.05859375 C-286.37197797 393.22602195 -288.14005942 395.38361579 -289.91796875 397.53515625 C-297.97989189 407.32409917 -305.64495791 417.37392963 -313.18847656 427.56640625 C-314.82555387 429.76564972 -316.48190765 431.94804915 -318.1484375 434.125 C-342.33054001 465.96401356 -363.4877963 500.33713282 -382.59130859 535.41455078 C-383.49265071 537.0688338 -384.41078022 538.71414847 -385.35009766 540.34716797 C-386.67258032 542.65212912 -386.67258032 542.65212912 -388 546 C-386.50286055 549.97902584 -383.65522944 553.04897998 -381 556.3125 C-341.35901991 606.12654005 -329.75930994 670.11190075 -328.4375 732.3125 C-328.39420096 734.2285229 -328.35058352 736.14453863 -328.30664062 738.06054688 C-328.20075994 742.70695685 -328.09917504 747.35344226 -328 752 C-327.59442871 751.02281006 -327.59442871 751.02281006 -327.18066406 750.02587891 C-313.31737107 716.71562797 -298.11167319 684.22925397 -280 653 C-279.55414551 652.22575684 -279.10829102 651.45151367 -278.64892578 650.65380859 C-257.69494747 614.28040911 -233.78248819 579.15606352 -207.29150391 546.59130859 C-205.45030142 544.32269654 -203.63199747 542.03603529 -201.8125 539.75 C-194.72356191 530.89974464 -187.49761366 522.1852535 -180.09375 513.59765625 C-178.08054875 511.2621662 -176.08071839 508.91643598 -174.09375 506.55859375 C-167.44798311 498.69320432 -160.52366771 491.14170954 -153.4453125 483.6640625 C-150.80074528 480.86618703 -148.22503816 478.02077885 -145.6875 475.125 C-140.56652925 469.36757973 -135.04721085 463.99675221 -129.55737305 458.59423828 C-126.04760609 455.12441123 -122.6421717 451.64478222 -119.4453125 447.8828125 C-116.58563942 444.55184566 -113.50084038 441.74095975 -110.16015625 438.90234375 C-105.90066324 435.15121699 -101.98129845 431.04162116 -98 427 C-92.77595081 421.69679855 -87.5513001 416.49146364 -81.8984375 411.64453125 C-78.67937238 408.85599953 -75.59888298 405.92054455 -72.5 403 C-67.41404329 398.23351137 -62.30409974 393.52408507 -57 389 C-55.9789719 388.12522728 -54.95815929 387.25020301 -53.9375 386.375 C-52.16521889 384.85546862 -50.39247333 383.33649894 -48.61816406 381.81933594 C-45.52018124 379.16882138 -42.43078448 376.50940927 -39.359375 373.828125 C-30.0513506 365.70380875 -20.57316923 357.80957481 -11 350 C-10.31228516 349.43748535 -9.62457031 348.8749707 -8.91601562 348.29541016 C3.89967333 337.81344234 16.88321746 327.56321721 30.03417969 317.50488281 C31.46550664 316.40916755 32.89569225 315.31196089 34.32519531 314.21386719 C45.69232759 305.48310111 57.14717195 296.90785026 68.80712891 288.57226562 C71.75925979 286.45561868 74.69751645 284.3200908 77.63671875 282.18554688 C81.41593745 279.44511865 85.20636762 276.72042834 89 274 C89.69561035 273.50048828 90.3912207 273.00097656 91.10791016 272.48632812 C107.51642324 260.74578701 124.3897298 249.6803908 141.19595337 238.5219574 C145.60842037 235.59182062 150.01588484 232.65466788 154.4140625 229.703125 C166.48528231 221.60244047 178.69716104 213.74411259 191 206 C191.94182129 205.40606445 192.88364258 204.81212891 193.85400391 204.20019531 C217.96613017 189.00714741 242.32348582 174.25798269 267 160 C269.15500248 158.75139624 271.30994914 157.50269615 273.46484375 156.25390625 C406.26435782 79.37930807 406.26435782 79.37930807 448.25 89.6875 C476.48550417 97.27697377 499.86488996 114.80538435 514.80444336 140.0769043 C521.16430433 151.31954319 525.80433644 163.24758607 528 176 C528.13019531 176.75023437 528.26039063 177.50046875 528.39453125 178.2734375 C531.96513437 203.88656389 524.87632614 229.01205707 509.9375 249.9375 C494.82130744 269.27808308 474.92849281 281.82462326 454.68359375 295.2265625 C447.39049058 300.0581682 440.18490634 305.00950641 433 310 C432.13020508 310.60312012 431.26041016 311.20624023 430.36425781 311.82763672 C413.22710745 323.71232373 396.16177913 335.68364223 379.26953125 347.9140625 C375.52384495 350.62470166 371.76554775 353.31704723 368 356 C348.67238412 369.78381887 329.4904437 383.7535446 310.63232422 398.17456055 C305.38196572 402.18951193 300.11086898 406.17368526 294.8125 410.125 C282.49622964 419.32504903 270.42828219 428.85225403 258.3515625 438.36328125 C256.1000418 440.13627175 253.84463236 441.90412755 251.5859375 443.66796875 C244.64938556 449.09021683 237.78488489 454.59203773 230.96582031 460.16137695 C226.64422987 463.68454886 222.27759553 467.14135901 217.875 470.5625 C212.46127533 474.77821235 207.22619805 479.1703142 202.03857422 483.66040039 C198.56861082 486.66285959 195.06419865 489.60898089 191.5 492.5 C185.50310849 497.37302311 179.65162831 502.40812141 173.79833984 507.45166016 C171.44972152 509.47378036 169.09660349 511.49061574 166.74291992 513.50683594 C165.57995443 514.50315152 164.41735726 515.4998972 163.25512695 516.49707031 C160.3187338 519.01620598 157.37823812 521.53025702 154.4296875 524.03515625 C147.7169581 529.74676783 141.13460566 535.56634444 134.6640625 541.55078125 C132.46909223 543.56873779 130.2533379 545.54803445 128 547.5 C124.11715152 550.86728353 120.3348372 554.34096091 116.55371094 557.82128906 C113.47339663 560.65502411 110.37314411 563.46335627 107.25 566.25 C97.89761295 574.64898837 88.6524593 583.20692679 79.84989929 592.18254089 C78.09910959 593.90262841 76.2949752 595.49465028 74.42504883 597.08325195 C69.28959832 601.55126389 64.50537479 606.35114221 59.69921875 611.16796875 C58.73149409 612.13501798 57.76362118 613.10191887 56.79560852 614.06867981 C54.78293035 616.07989508 52.77204316 618.09287892 50.76245117 620.10717773 C48.19260413 622.68275213 45.61825087 625.25376848 43.04255962 627.82349682 C41.04958496 629.81285389 39.05900299 631.80459141 37.06913185 633.79705238 C35.66183084 635.20533908 34.25252583 636.61162226 32.84318542 638.01786804 C31.98832047 638.87588516 31.13345551 639.73390228 30.25268555 640.61791992 C29.50182175 641.36957932 28.75095795 642.12123871 27.9773407 642.89567566 C26.14874032 644.84170767 24.55171837 646.82981965 23 649 C23.99290039 649.23952393 23.99290039 649.23952393 25.00585938 649.48388672 C54.70891279 656.76655209 81.93279325 667.91315123 106 687 C106.54962402 687.43393066 107.09924805 687.86786133 107.66552734 688.31494141 C148.56626285 720.94472109 173.81323351 767.35625358 180.59765625 819.13671875 C181.34750456 826.57661994 181.37291292 834.09122134 181.5625 841.5625 C181.60577645 843.15951455 181.64939337 844.75651991 181.69335938 846.35351562 C181.79950069 850.23558223 181.90102619 854.11774432 182 858 C182.88300781 857.16597656 183.76601563 856.33195313 184.67578125 855.47265625 C190.98612758 849.54349553 197.33833795 843.78173384 204.1015625 838.3671875 C207.57530949 835.53013807 210.94043037 832.58141745 214.3125 829.625 C219.70493767 824.91029293 225.21238196 820.40215376 230.87695312 816.01953125 C234.78183305 812.98874706 238.56691552 809.84984839 242.3125 806.625 C247.90103578 801.82831676 253.69706552 797.34633286 259.56835938 792.90234375 C264.21231351 789.38306484 268.78432215 785.79169263 273.3125 782.125 C279.81258902 776.87780401 286.46444598 771.85109623 293.16186523 766.85913086 C299.43600532 762.181958 305.66222082 757.44578238 311.875 752.6875 C319.22083905 747.07268844 326.64219502 741.60269005 334.19970703 736.27783203 C336.93455091 734.33666403 339.64603249 732.36360753 342.36010742 730.39355469 C351.14615293 724.01782348 360.00707569 717.75622886 368.9140625 711.55078125 C372.33581422 709.16662271 375.74624487 706.76745173 379.1484375 704.35546875 C408.31470476 683.7059963 437.57107486 666.66424153 474.9140625 672.68359375 C506.25398434 678.73679777 532.08695691 698.38553142 549.8359375 724.49462891 C562.04637259 743.01122357 570.29946841 763.08146675 574 785 C574.18175781 786.00933594 574.36351562 787.01867187 574.55078125 788.05859375 C578.03427249 818.62244299 572.5838813 850.97276057 553.22265625 875.6484375 C550.58666269 878.86213393 547.85642446 881.98047648 545 885 C544.20299683 885.84425537 544.20299683 885.84425537 543.38989258 886.70556641 C539.21128261 891.01273988 534.74812785 894.67410552 529.9375 898.25 C528.42910161 899.38724415 526.92129758 900.52527702 525.4140625 901.6640625 C524.66930664 902.22512695 523.92455078 902.78619141 523.15722656 903.36425781 C520.01340472 905.74809737 516.90941562 908.18069451 513.8125 910.625 C513.24716553 911.07069336 512.68183105 911.51638672 512.09936523 911.97558594 C510.96653368 912.86913258 509.83396349 913.76301066 508.70166016 914.65722656 C506.38955382 916.48170072 504.07344767 918.30105796 501.75708008 920.12011719 C500.586096 921.03972285 499.41536007 921.95964458 498.24487305 922.87988281 C495.35656237 925.15062044 492.46597408 927.41832943 489.5703125 929.6796875 C481.8719299 935.69828389 474.26507188 941.82139725 466.69140625 947.99609375 C463.70356942 950.43116179 460.70152967 952.84737413 457.6875 955.25 C449.63115983 961.6816449 441.68911312 968.23988891 433.83447266 974.91552734 C430.44103984 977.79507741 427.01759017 980.63182472 423.5625 983.4375 C417.55264169 988.33248605 411.68248717 993.38317358 405.81152344 998.44287109 C404.00637604 999.99451936 402.19561441 1001.53933585 400.3828125 1003.08203125 C393.97245758 1008.54196051 387.65652625 1014.07483798 381.44921875 1019.765625 C378.67229782 1022.29895637 375.84713244 1024.77095372 373.01171875 1027.23828125 C365.42924614 1033.878466 358.01446105 1040.70878269 350.59716797 1047.53222656 C348.94307238 1049.05231563 347.28607845 1050.56920363 345.62890625 1052.0859375 C340.29048725 1056.98153834 335.02864571 1061.90886121 329.95310974 1067.07933044 C328.11171151 1068.89014396 326.21696701 1070.57687717 324.25415039 1072.25415039 C320.0815554 1075.88248081 316.14887405 1079.70631784 312.24609375 1083.62109375 C311.54154556 1084.32468521 310.83699738 1085.02827667 310.11109924 1085.75318909 C308.63346633 1087.23014648 307.15707543 1088.70834742 305.68188477 1090.18774414 C303.44333519 1092.43165085 301.19949527 1094.67016704 298.95507812 1096.90820312 C297.51009596 1098.35384618 296.06542408 1099.79979945 294.62109375 1101.24609375 C293.96048447 1101.9046788 293.29987518 1102.56326385 292.61924744 1103.24180603 C288.74554106 1107.13476178 285.05664099 1111.13751993 281.47694397 1115.3028717 C279.73944314 1117.29940095 277.90365409 1119.16198915 276 1121 C272.82910002 1124.12845964 269.8743004 1127.36855352 266.97265625 1130.74609375 C265.03541094 1132.95954037 263.04915068 1135.12186491 261.04833984 1137.27783203 C256.28868186 1142.40977201 251.75215556 1147.65251529 247.36328125 1153.109375 C245.20670724 1155.747168 242.9978297 1158.32279323 240.75952148 1160.890625 C234.00848921 1168.64726956 227.73477904 1176.70888358 221.56298828 1184.93115234 C220.12984477 1186.82813112 218.67741292 1188.70770627 217.21484375 1190.58203125 C202.29230476 1209.85268481 188.62679195 1230.58455655 177 1252 C176.52159668 1252.86544434 176.04319336 1253.73088867 175.55029297 1254.62255859 C151.78374582 1297.75895597 134.27737763 1350.33861995 148.25390625 1399.5234375 C155.33393823 1422.93742337 168.43852221 1442.20303008 185 1460 C185.61230469 1460.66644531 186.22460938 1461.33289062 186.85546875 1462.01953125 C192.9633598 1468.41393318 199.95778717 1473.68960242 207 1479 C207.55961426 1479.42571289 208.11922852 1479.85142578 208.69580078 1480.29003906 C218.60457007 1487.78239255 229.14187463 1493.99035134 240 1500 C240.79196777 1500.44456543 241.58393555 1500.88913086 242.39990234 1501.34716797 C275.72425178 1519.95739943 312.51193188 1532.51319386 349.31420898 1542.23535156 C350.57434814 1542.57276367 351.8344873 1542.91017578 353.1328125 1543.2578125 C354.24543457 1543.5480127 355.35805664 1543.83821289 356.50439453 1544.13720703 C359 1545 359 1545 360 1547 C287.9398966 1547.65439038 287.9398966 1547.65439038 252 1544 C250.52002865 1543.85391154 249.04004825 1543.70791468 247.56005859 1543.56201172 C163.37144456 1535.13212242 79.995402 1513.25843502 -124 1408 C-124.78697266 1407.46294434 -125.57394531 1406.92588867 -126.38476562 1406.37255859 C-139.58301483 1397.33370967 -152.35811849 1387.79864285 -165 1378 C-165.68352539 1377.47245117 -166.36705078 1376.94490234 -167.07128906 1376.40136719 C-174.51661009 1370.65041958 -181.7766524 1364.72022776 -188.92578125 1358.60546875 C-191.69699155 1356.24135813 -194.52927189 1353.96156042 -197.375 1351.6875 C-202.64826087 1347.402493 -207.59381939 1342.80695987 -212.52294922 1338.13549805 C-215.52472651 1335.29280112 -218.55144993 1332.50769455 -221.69042969 1329.81665039 C-226.18779827 1325.8912981 -230.4148588 1321.72938706 -234.62890625 1317.50390625 C-235.42223862 1316.71153061 -236.21557098 1315.91915497 -237.03294373 1315.10276794 C-238.69889081 1313.43749717 -240.36359256 1311.77097971 -242.02709961 1310.10327148 C-244.55536134 1307.56965378 -247.08891661 1305.04141833 -249.62304688 1302.51367188 C-251.2503207 1300.88573717 -252.87728425 1299.25749225 -254.50390625 1297.62890625 C-255.25201065 1296.88282608 -256.00011505 1296.13674591 -256.77088928 1295.36805725 C-260.8370929 1291.28391268 -264.74088533 1287.11358177 -268.49659729 1282.74151611 C-270.72427135 1280.1610164 -273.05143966 1277.68201297 -275.375 1275.1875 C-279.66430703 1270.54442811 -283.72678619 1265.76558383 -287.69140625 1260.83984375 C-289.77083343 1258.28190202 -291.89038557 1255.76875494 -294.03417969 1253.26513672 C-299.41924341 1246.97132007 -304.569214 1240.52761278 -309.55566406 1233.91259766 C-311.1630413 1231.7840998 -312.78097492 1229.66381155 -314.3984375 1227.54296875 C-343.91655118 1188.68616851 -369.21882958 1147.23912065 -391.51953125 1103.87744141 C-392.47456031 1102.02124542 -393.43266828 1100.16662878 -394.39453125 1098.31396484 C-433.49271988 1022.89220689 -458.74638061 938.45031699 -440.99395752 492.2406311 C-429.9485408 457.5723059 -416.50226999 423.91719298 -401 391 C-400.29689697 389.49324707 -400.29689697 389.49324707 -399.57958984 387.95605469 C-381.13339023 348.46683007 -359.1144792 310.62774069 -334 275 C-333.58830566 274.41347656 -333.17661133 273.82695312 -332.75244141 273.22265625 C-314.45173381 247.18854073 -294.7808703 221.91330718 -273.25 198.46484375 C-271.38233297 196.41884046 -269.55630403 194.34982843 -267.75 192.25 C-257.82385653 180.8993758 -247.27135455 170.1689021 -236.625 159.5 C-236.0614682 158.93388 -235.4979364 158.36776001 -234.91732788 157.78448486 C-229.33423797 152.18119248 -223.75086083 146.62463417 -217.73046875 141.48535156 C-214.97071192 139.11650837 -212.33967407 136.61269491 -209.6875 134.125 C-204.89004372 129.66173293 -199.96837627 125.43025571 -194.85546875 121.328125 C-192.22841753 119.18623372 -189.6668348 116.98946349 -187.11254883 114.76245117 C-179.42362605 108.0696204 -171.43897313 101.84218845 -163.2890625 95.72265625 C-160.94618222 93.95949891 -158.61317494 92.18386491 -156.28125 90.40625 C-137.79743253 76.36381974 -118.8101792 63.10599187 -99 51 C-98.20029785 50.51080078 -97.4005957 50.02160156 -96.57666016 49.51757812 C-90.74643101 45.96281403 -84.88344895 42.46587387 -79 39 C-77.78352783 38.28142822 -77.78352783 38.28142822 -76.54248047 37.54833984 C-56.52044935 25.76950211 -35.81900424 15.22405481 -14.9375 5.0625 C-13.36790527 4.29099609 -13.36790527 4.29099609 -11.76660156 3.50390625 C-10.31785645 2.8078125 -10.31785645 2.8078125 -8.83984375 2.09765625 C-7.99800537 1.69039307 -7.15616699 1.28312988 -6.28881836 0.86352539 C-4 0 -4 0 0 0 Z " fill="#2097C6" transform="translate(566,134)"/>
<path d="M0 0 C28.47818003 22.99441669 46.88858164 55.35238017 52.98095703 91.43798828 C53.25359375 92.95199219 53.25359375 92.95199219 53.53173828 94.49658203 C57.01522952 125.06043127 51.56483833 157.41074885 32.20361328 182.08642578 C29.56761972 185.30012221 26.83738149 188.41846476 23.98095703 191.43798828 C23.18395386 192.28224365 23.18395386 192.28224365 22.37084961 193.14355469 C18.19223964 197.45072816 13.72908488 201.1120938 8.91845703 204.68798828 C7.41005864 205.82523243 5.90225461 206.9632653 4.39501953 208.10205078 C3.27788574 208.94364746 3.27788574 208.94364746 2.13818359 209.80224609 C-1.00563825 212.18608565 -4.10962735 214.61868279 -7.20654297 217.06298828 C-7.77187744 217.50868164 -8.33721191 217.954375 -8.91967773 218.41357422 C-10.05250928 219.30712086 -11.18507948 220.20099894 -12.31738281 221.09521484 C-14.62948915 222.919689 -16.9455953 224.73904624 -19.26196289 226.55810547 C-20.43294696 227.47771114 -21.6036829 228.39763286 -22.77416992 229.31787109 C-25.6624806 231.58860872 -28.55306889 233.85631771 -31.44873047 236.11767578 C-39.14711307 242.13627218 -46.75397109 248.25938553 -54.32763672 254.43408203 C-57.31547355 256.86915007 -60.3175133 259.28536241 -63.33154297 261.68798828 C-71.38788314 268.11963318 -79.32992985 274.67787719 -87.18457031 281.35351562 C-90.57800313 284.23306569 -94.0014528 287.069813 -97.45654297 289.87548828 C-103.46640128 294.77047433 -109.3365558 299.82116186 -115.20751953 304.88085938 C-117.01266693 306.43250764 -118.82342856 307.97732413 -120.63623047 309.52001953 C-127.04658539 314.97994879 -133.36251672 320.51282626 -139.56982422 326.20361328 C-142.34674514 328.73694465 -145.17191053 331.208942 -148.00732422 333.67626953 C-155.58979683 340.31645428 -163.00458192 347.14677097 -170.421875 353.97021484 C-172.07597058 355.49030391 -173.73296452 357.00719191 -175.39013672 358.52392578 C-180.72855572 363.41952662 -185.99039726 368.34684949 -191.06593323 373.51731873 C-192.90733146 375.32813225 -194.80207596 377.01486545 -196.76489258 378.69213867 C-200.93748757 382.32046909 -204.87016892 386.14430613 -208.77294922 390.05908203 C-209.47749741 390.76267349 -210.18204559 391.46626495 -210.90794373 392.19117737 C-212.38557664 393.66813476 -213.86196753 395.1463357 -215.3371582 396.62573242 C-217.57570778 398.86963913 -219.8195477 401.10815532 -222.06396484 403.34619141 C-223.50894701 404.79183446 -224.95361889 406.23778774 -226.39794922 407.68408203 C-227.38886314 408.67195961 -227.38886314 408.67195961 -228.39979553 409.67979431 C-232.2735019 413.57275006 -235.96240198 417.57550822 -239.542099 421.74085999 C-241.27959983 423.73738923 -243.11538888 425.59997743 -245.01904297 427.43798828 C-248.18994295 430.56644792 -251.14474257 433.80654181 -254.04638672 437.18408203 C-255.98363203 439.39752865 -257.96989229 441.55985319 -259.97070312 443.71582031 C-264.73036111 448.84776029 -269.26688741 454.09050357 -273.65576172 459.54736328 C-275.81233573 462.18515628 -278.02121326 464.76078151 -280.25952148 467.32861328 C-287.01055376 475.08525784 -293.28426393 483.14687186 -299.45605469 491.36914062 C-300.8891982 493.2661194 -302.34163004 495.14569455 -303.80419922 497.02001953 C-318.72673821 516.29067309 -332.39225102 537.02254483 -344.01904297 558.43798828 C-344.49744629 559.30343262 -344.97584961 560.16887695 -345.46875 561.06054688 C-369.23529715 604.19694426 -386.74166533 656.77660823 -372.76513672 705.96142578 C-365.68510474 729.37541165 -352.58052076 748.64101836 -336.01904297 766.43798828 C-335.40673828 767.10443359 -334.79443359 767.77087891 -334.16357422 768.45751953 C-328.05568317 774.85192146 -321.0612558 780.1275907 -314.01904297 785.43798828 C-313.45942871 785.86370117 -312.89981445 786.28941406 -312.32324219 786.72802734 C-302.4144729 794.22038083 -291.87716834 800.42833962 -281.01904297 806.43798828 C-279.83109131 807.10483643 -279.83109131 807.10483643 -278.61914062 807.78515625 C-245.29479119 826.39538772 -208.50711109 838.95118214 -171.70483398 848.67333984 C-169.81462524 849.17945801 -169.81462524 849.17945801 -167.88623047 849.69580078 C-166.7736084 849.98600098 -165.66098633 850.27620117 -164.51464844 850.57519531 C-162.01904297 851.43798828 -162.01904297 851.43798828 -161.01904297 853.43798828 C-233.07914637 854.09237866 -233.07914637 854.09237866 -269.01904297 850.43798828 C-270.49901432 850.29189982 -271.97899472 850.14590296 -273.45898438 850 C-293.74406904 847.96922978 -313.87228161 844.95090406 -333.95423889 841.45881653 C-337.95751507 840.76791973 -341.95713475 840.1619898 -345.98779297 839.65673828 C-360.39643263 837.67658742 -371.11272434 830.44875068 -383.01904297 822.43798828 C-384.6019078 821.40402267 -386.18643837 820.37260072 -387.77294922 819.34423828 C-392.23052005 816.43611383 -396.63196581 813.45115299 -401.01904297 810.43798828 C-401.82438477 809.88643066 -402.62972656 809.33487305 -403.45947266 808.76660156 C-419.16378534 797.98167548 -434.40960289 786.67312697 -449.01904297 774.43798828 C-449.5235498 774.01839844 -450.02805664 773.59880859 -450.54785156 773.16650391 C-458.00529945 766.96139999 -465.27183809 760.58219466 -472.37109375 753.96826172 C-474.19342776 752.27605586 -476.02593575 750.5952482 -477.85888672 748.91455078 C-489.62560485 738.08679737 -489.62560485 738.08679737 -494.23388672 732.53564453 C-496.15583059 730.27725535 -498.17631794 728.12501098 -500.21142578 725.96875 C-506.9553863 718.79985654 -513.11783649 711.31151787 -519.01904297 703.43798828 C-519.54675293 702.73480469 -520.07446289 702.03162109 -520.61816406 701.30712891 C-554.82515989 655.45669456 -575.58927839 601.91579585 -575.33154297 544.31298828 C-575.32972015 543.46148193 -575.32789734 542.60997559 -575.32601929 541.73266602 C-575.2770824 528.10430068 -574.57916162 514.85341317 -572.01904297 501.43798828 C-571.85275391 500.53371094 -571.68646484 499.62943359 -571.51513672 498.69775391 C-557.74521064 425.41114734 -518.16245628 359.88669686 -472.01904297 302.43798828 C-471.25575684 301.48545166 -471.25575684 301.48545166 -470.47705078 300.51367188 C-460.185451 287.69140211 -449.62375128 275.15932831 -438.45654297 263.09033203 C-436.50160418 260.96308294 -434.59022252 258.81526576 -432.70654297 256.62548828 C-421.22106468 243.43759935 -408.83137571 231.09181388 -396.45800781 218.74658203 C-394.09549654 216.38858015 -391.73636784 214.02730525 -389.37908363 211.66408539 C-387.08703277 209.36752589 -384.79114802 207.07480682 -382.49560547 204.78173828 C-381.66211578 203.94622437 -380.8286261 203.11071045 -379.96987915 202.24987793 C-375.68250884 197.97950526 -371.32209726 193.86516043 -366.73501587 189.91815186 C-364.67859908 188.14432825 -362.69670748 186.3026523 -360.72998047 184.43017578 C-360.01583984 183.75341797 -359.30169922 183.07666016 -358.56591797 182.37939453 C-357.10999933 180.99417698 -355.65427221 179.60875811 -354.19873047 178.22314453 C-351.1316966 175.31724107 -348.07855114 172.43525983 -344.80810547 169.75830078 C-342.03686843 167.45281787 -339.54677734 165.00559228 -337.01904297 162.43798828 C-330.54170269 156.31328258 -323.93382539 150.46425 -316.98779297 144.87548828 C-313.4962322 142.00873312 -310.10364142 139.04038644 -306.70654297 136.06298828 C-301.31401641 131.34837544 -295.80666792 126.84014738 -290.14208984 122.45751953 C-286.23720992 119.42673534 -282.45212745 116.28783667 -278.70654297 113.06298828 C-273.11800719 108.26630504 -267.32197745 103.78432114 -261.45068359 99.34033203 C-256.80672946 95.82105312 -252.23472082 92.22968091 -247.70654297 88.56298828 C-241.20645395 83.31579229 -234.55459699 78.28908451 -227.85717773 73.29711914 C-221.58303765 68.61994629 -215.35682214 63.88377066 -209.14404297 59.12548828 C-201.79820392 53.51067672 -194.37684795 48.04067833 -186.81933594 42.71582031 C-184.08449206 40.77465231 -181.37301048 38.80159581 -178.65893555 36.83154297 C-169.87289004 30.45581177 -161.01196728 24.19421714 -152.10498047 17.98876953 C-148.68322875 15.60461099 -145.2727981 13.20544001 -141.87060547 10.79345703 C-97.58744197 -20.5586511 -47.37778926 -36.65333684 0 0 Z " fill="#30B1BB" transform="translate(1087.01904296875,827.56201171875)"/>
<path d="M0 0 C28.44569064 0.47698567 61.62825792 19.69642483 83.15625 37.2421875 C84.68572266 38.46808594 84.68572266 38.46808594 86.24609375 39.71875 C126.38339725 72.40915679 150.95879555 118.15808778 157.76171875 169.375 C158.42502531 176.05608778 158.49249485 182.78131926 158.5612793 189.49023438 C158.58297835 191.07867006 158.61722047 192.6669825 158.66381836 194.25488281 C159.095976 209.18508333 159.095976 209.18508333 155.3515625 213.62890625 C153.69604492 215.09765625 153.69604492 215.09765625 152.15625 216.2421875 C151.53621094 216.83386719 150.91617187 217.42554688 150.27734375 218.03515625 C149.72175781 218.49535156 149.16617187 218.95554687 148.59375 219.4296875 C143.89179886 223.43703222 139.3648513 227.62266238 134.83959961 231.82641602 C132.54439424 233.9574692 130.243406 236.08186077 127.93579102 238.19946289 C117.66157084 247.66502526 107.75773174 257.48725507 97.89208984 267.37597656 C95.13623645 270.13724034 92.37500972 272.8930511 89.61328125 275.6484375 C87.83561641 277.42676242 86.05826141 279.20539713 84.28125 280.984375 C83.06078979 282.20179886 83.06078979 282.20179886 81.81567383 283.44381714 C77.61199642 287.6646607 73.55607193 291.95529033 69.68026733 296.48005676 C67.13655098 299.42120492 64.44915933 302.22667093 61.78125 305.0546875 C57.05428624 310.10129694 52.58115857 315.27552898 48.2578125 320.67578125 C46.17623573 323.21778113 44.0058662 325.63748085 41.78125 328.0546875 C36.78132256 333.55547123 32.23758618 339.37827741 27.69677734 345.25585938 C26.07448548 347.3476132 24.43891452 349.42844539 22.80078125 351.5078125 C-2.11145905 383.19180474 -24.28802492 416.97570508 -41.88916016 453.28417969 C-42.82174419 455.19705026 -43.7748121 457.09857451 -44.73046875 459 C-58.14017387 486.09656924 -67.57111565 515.49818308 -72.84375 545.2421875 C-72.99328125 546.04043945 -73.1428125 546.83869141 -73.296875 547.66113281 C-84.885284 611.47230735 -67.31651953 678.53000954 -31.20605469 731.65136719 C-24.83136774 740.84527146 -18.09957008 749.72395278 -10.84375 758.2421875 C-9.86438014 759.40738132 -8.8852271 760.57275742 -7.90625 761.73828125 C-3.01268039 767.53459296 1.91329148 773.17854076 7.37109375 778.45703125 C9.20171715 780.28765465 10.86249439 782.20118607 12.53125 784.1796875 C15.84494071 788.02207943 19.48329886 791.3425656 23.2890625 794.69140625 C25.99965638 797.10287465 28.64986393 799.56522685 31.29248047 802.05029297 C37.70185267 808.07048127 44.27145763 813.76607216 51.15625 819.2421875 C52.28479542 820.16160627 53.41234538 821.08224786 54.5390625 822.00390625 C76.17858535 839.63091839 99.4455686 855.23931103 123.125 869.97460938 C126.04302212 871.79556741 128.94373527 873.64268831 131.84375 875.4921875 C133.11798828 876.30429688 133.11798828 876.30429688 134.41796875 877.1328125 C134.99160156 877.49890625 135.56523438 877.865 136.15625 878.2421875 C131.93335901 880.353633 125.80914053 877.53487432 121.40625 876.4921875 C120.7475592 876.33669434 120.08886841 876.18120117 119.41021729 876.02099609 C74.49715338 865.35834619 30.48163211 850.63467424 -11.84375 832.2421875 C-12.82617676 831.81744141 -13.80860352 831.39269531 -14.82080078 830.95507812 C-20.5368264 828.4710255 -26.20227129 825.89079512 -31.84375 823.2421875 C-33.23787109 822.59032471 -33.23787109 822.59032471 -34.66015625 821.92529297 C-86.34955439 797.67272171 -86.34955439 797.67272171 -91.78125 790.9921875 C-95.27925273 786.84499212 -98.94332546 782.88327373 -102.65625 778.9296875 C-110.84851377 770.17743526 -118.97845472 761.44451427 -126.5078125 752.10546875 C-128.56124747 749.58846568 -130.65872463 747.11718516 -132.77929688 744.65673828 C-180.84780149 688.73022635 -216.03197118 620.25600536 -231.84375 548.2421875 C-232.04548828 547.32598633 -232.24722656 546.40978516 -232.45507812 545.46582031 C-233.81812371 539.08990151 -234.88468 532.69021172 -235.84375 526.2421875 C-236.02566895 525.06060059 -236.20758789 523.87901367 -236.39501953 522.66162109 C-242.98749074 478.42017652 -241.49285378 433.083396 -232.84375 389.2421875 C-232.66618164 388.30455566 -232.48861328 387.36692383 -232.30566406 386.40087891 C-219.64676796 319.64268976 -191.73891263 256.2263005 -156.84375 198.2421875 C-156.22806152 197.21303223 -155.61237305 196.18387695 -154.97802734 195.12353516 C-141.61341046 172.84003314 -127.19671001 151.20793136 -111.84375 130.2421875 C-111.33602051 129.54432129 -110.82829102 128.84645508 -110.30517578 128.12744141 C-95.50413816 107.79056566 -80.04559651 87.97568607 -63.73022461 68.82958984 C-60.84533142 65.44175744 -58.01844605 62.01313556 -55.21875 58.5546875 C-51.59540505 54.10314942 -47.82411128 49.81836295 -43.9609375 45.57421875 C-42.06323831 43.48394861 -40.19641585 41.37232635 -38.34375 39.2421875 C-31.13521187 30.97551533 -23.7150928 22.89900791 -16.29492188 14.82275391 C-14.77342329 13.16559007 -13.25367203 11.50683861 -11.734375 9.84765625 C-10.97713135 9.02080322 -10.97713135 9.02080322 -10.20458984 8.17724609 C-9.23082979 7.11388604 -8.2571925 6.05041355 -7.28369141 4.98681641 C-2.94487908 0.25080014 -2.94487908 0.25080014 0 0 Z " fill="#283458" transform="translate(588.84375,783.7578125)"/>
<path d="M0 0 C11.82408743 20.64162271 17.36367128 41.41990532 11.45703125 65.18457031 C-0.32433415 108.01396076 -36.09244464 142.12792346 -66.5 172.625 C-67.0126944 173.14037323 -67.52538879 173.65574646 -68.05361938 174.18673706 C-73.3142994 179.46830493 -78.61400903 184.64720061 -84.27929688 189.49755859 C-86.81776457 191.71403563 -89.14541037 194.08867327 -91.5 196.5 C-95.25149794 200.30869334 -99.10589769 203.91966876 -103.171875 207.390625 C-105.6076653 209.53495321 -107.8545078 211.84210381 -110.1262207 214.1574707 C-111.9328822 215.93400156 -113.79380836 217.59467736 -115.71484375 219.24609375 C-119.9329271 222.91403443 -124.00693622 226.71659995 -128.0625 230.5625 C-129.56224934 231.97943202 -131.0622541 233.39609374 -132.5625 234.8125 C-133.30757813 235.51632812 -134.05265625 236.22015625 -134.8203125 236.9453125 C-138.0567538 239.99615143 -141.30863277 243.03027049 -144.5625 246.0625 C-145.78907909 247.20701347 -147.01564151 248.35154481 -148.2421875 249.49609375 C-150.16443514 251.28928053 -152.08759704 253.08145547 -154.01269531 254.87158203 C-161.87467083 262.18318195 -169.65239463 269.53833332 -177.15625 277.21875 C-179.28747259 279.30313253 -181.4212831 281.24759169 -183.67944336 283.18383789 C-187.94894004 286.90588378 -191.97465365 290.82994788 -195.97265625 294.83984375 C-196.69940048 295.56563126 -197.42614471 296.29141876 -198.1749115 297.03919983 C-199.69962296 298.56323556 -201.2230915 300.08851569 -202.74536133 301.61499023 C-205.05633891 303.93132463 -207.37260771 306.24227078 -209.68945312 308.55273438 C-211.1800082 310.04395034 -212.670253 311.53547653 -214.16015625 313.02734375 C-215.18388084 314.048032 -215.18388084 314.048032 -216.22828674 315.08934021 C-220.13478564 319.01465749 -223.86199455 323.04171428 -227.46665955 327.24647522 C-229.69512765 329.79494646 -232.07760813 332.13460559 -234.5 334.5 C-238.18149581 338.13224294 -241.70007744 341.84033166 -245.05859375 345.7734375 C-247.64482249 348.73953485 -250.32269355 351.61621115 -253 354.5 C-257.41529594 359.26619826 -261.76705702 364.07027629 -266 369 C-266.92442929 370.07035558 -267.84891358 371.14066365 -268.7734375 372.2109375 C-274.13419733 378.42873328 -279.44256208 384.68106401 -284.61328125 391.05859375 C-286.37197797 393.22602195 -288.14005942 395.38361579 -289.91796875 397.53515625 C-297.97989189 407.32409917 -305.64495791 417.37392963 -313.18847656 427.56640625 C-314.82555387 429.76564972 -316.48190765 431.94804915 -318.1484375 434.125 C-342.33054001 465.96401356 -363.4877963 500.33713282 -382.59130859 535.41455078 C-383.49265071 537.0688338 -384.41078022 538.71414847 -385.35009766 540.34716797 C-386.67258032 542.65212912 -386.67258032 542.65212912 -388 546 C-386.50286055 549.97902584 -383.65522944 553.04897998 -381 556.3125 C-338.19237243 610.10584389 -321.44086133 690.31128329 -329 758 C-330.76110629 767.76028653 -334.70185598 776.89613118 -338.54782104 785.98616028 C-341.64930324 793.36627328 -343.96430057 800.94188105 -346.1875 808.625 C-346.38958069 809.31809265 -346.59166138 810.0111853 -346.79986572 810.72528076 C-358.82126891 852.21936367 -366.34765482 894.98003522 -370 938 C-370.08621109 939.01390305 -370.17242218 940.02780609 -370.26124573 941.07243347 C-370.96250193 949.99207649 -371.19242048 958.88185715 -371.23828125 967.82421875 C-371.24557849 968.92283045 -371.24557849 968.92283045 -371.25302315 970.04363632 C-371.28938662 975.59158528 -371.30572528 981.13944158 -371.3125 986.6875 C-371.31365059 987.50416515 -371.31480118 988.32083031 -371.31598663 989.16224289 C-371.34190043 1015.64422971 -370.57316307 1041.72489058 -367 1068 C-366.88638123 1068.85346008 -366.77276245 1069.70692017 -366.65570068 1070.58624268 C-361.89136783 1106.34054101 -355.19573075 1141.86943197 -345.33398438 1176.59521484 C-343.8948707 1181.78974139 -343.8948707 1181.78974139 -345 1184 C-362.13302236 1158.1924051 -377.35765787 1131.41391179 -391.51953125 1103.87744141 C-392.47456031 1102.02124542 -393.43266828 1100.16662878 -394.39453125 1098.31396484 C-433.49271988 1022.89220689 -458.74638061 938.45031699 -440.99395752 492.2406311 C-429.9485408 457.5723059 -416.50226999 423.91719298 -401 391 C-400.29689697 389.49324707 -400.29689697 389.49324707 -399.57958984 387.95605469 C-381.13339023 348.46683007 -359.1144792 310.62774069 -334 275 C-333.58830566 274.41347656 -333.17661133 273.82695312 -332.75244141 273.22265625 C-314.45173381 247.18854073 -294.7808703 221.91330718 -273.25 198.46484375 C-271.38233297 196.41884046 -269.55630403 194.34982843 -267.75 192.25 C-257.82385653 180.8993758 -247.27135455 170.1689021 -236.625 159.5 C-236.0614682 158.93388 -235.4979364 158.36776001 -234.91732788 157.78448486 C-229.33423797 152.18119248 -223.75086083 146.62463417 -217.73046875 141.48535156 C-214.97071192 139.11650837 -212.33967407 136.61269491 -209.6875 134.125 C-204.89004372 129.66173293 -199.96837627 125.43025571 -194.85546875 121.328125 C-192.22841753 119.18623372 -189.6668348 116.98946349 -187.11254883 114.76245117 C-179.42362605 108.0696204 -171.43897313 101.84218845 -163.2890625 95.72265625 C-160.94618222 93.95949891 -158.61317494 92.18386491 -156.28125 90.40625 C-137.79743253 76.36381974 -118.8101792 63.10599187 -99 51 C-98.20029785 50.51080078 -97.4005957 50.02160156 -96.57666016 49.51757812 C-90.74643101 45.96281403 -84.88344895 42.46587387 -79 39 C-77.78352783 38.28142822 -77.78352783 38.28142822 -76.54248047 37.54833984 C-56.52044935 25.76950211 -35.81900424 15.22405481 -14.9375 5.0625 C-13.36790527 4.29099609 -13.36790527 4.29099609 -11.76660156 3.50390625 C-10.31785645 2.8078125 -10.31785645 2.8078125 -8.83984375 2.09765625 C-7.99800537 1.69039307 -7.15616699 1.28312988 -6.28881836 0.86352539 C-4 0 -4 0 0 0 Z " fill="#1C86C7" transform="translate(566,134)"/>
<path d="M0 0 C35.36987846 27.95279981 56.0258995 70.59420918 62.48828125 114.6640625 C65.94671533 146.0392257 61.22054463 176.79733608 41.4921875 202.1484375 C33.48854264 211.96920103 23.53966805 218.68755773 13.23828125 225.9140625 C11.79912449 226.92918486 10.36030983 227.94479243 8.921875 228.9609375 C6.8251837 230.44155792 4.72793563 231.92133867 2.62841797 233.39794922 C-2.46985722 236.98658087 -7.52789761 240.627833 -12.57421875 244.2890625 C-19.76099687 249.50103898 -27.01674956 254.60714255 -34.30004883 259.68310547 C-39.82619621 263.54109288 -45.3082866 267.45406141 -50.76171875 271.4140625 C-57.88496021 276.58659296 -65.07863866 281.65031591 -72.30078125 286.68359375 C-77.82666405 290.54144691 -83.30852413 294.4542339 -88.76171875 298.4140625 C-95.88496021 303.58659296 -103.07863866 308.65031591 -110.30078125 313.68359375 C-115.82667332 317.54145339 -121.3082059 321.45466276 -126.76171875 325.4140625 C-187.16950653 369.21305719 -187.16950653 369.21305719 -221.82421875 363.7890625 C-252.09216039 358.94892537 -278.61149529 339.06005098 -296.76171875 314.9140625 C-297.15955566 314.39118652 -297.55739258 313.86831055 -297.96728516 313.32958984 C-313.0742923 293.36570642 -323.52297108 271.13538051 -329.76171875 246.9140625 C-329.94105957 246.24713379 -330.12040039 245.58020508 -330.30517578 244.89306641 C-335.22095128 225.92803382 -335.27740366 200.62576339 -329.76171875 181.9140625 C-329.56304199 181.23424316 -329.36436523 180.55442383 -329.15966797 179.85400391 C-324.7278328 165.09781866 -317.83822589 152.63907797 -307.76171875 140.9140625 C-307.24480469 140.25277344 -306.72789063 139.59148437 -306.1953125 138.91015625 C-297.46154107 128.07502628 -284.68688677 120.3373557 -273.46875 112.30078125 C-268.70124948 108.88124361 -263.9787286 105.40277497 -259.26171875 101.9140625 C-250.88262845 95.72342564 -242.45063752 89.60931394 -233.99560547 83.52294922 C-230.24812091 80.82394122 -226.5051603 78.11867366 -222.76171875 75.4140625 C-221.26174021 74.33069946 -219.76174021 73.24736612 -218.26171875 72.1640625 C-217.51921875 71.6278125 -216.77671875 71.0915625 -216.01171875 70.5390625 C-209.26171875 65.6640625 -209.26171875 65.6640625 -207.01196289 64.03930664 C-205.51106325 62.95527834 -204.01024953 61.87113108 -202.50952148 60.78686523 C-198.77397908 58.08818595 -195.03699621 55.39154938 -191.296875 52.69921875 C-183.50256028 47.08503072 -175.73718275 41.43520867 -168.01171875 35.7265625 C-161.49449002 30.91119321 -154.9405856 26.15541777 -148.3359375 21.4609375 C-144.97788511 19.07273681 -141.63457809 16.66448386 -138.29467773 14.25097656 C-136.77056551 13.14982137 -135.24533296 12.05021521 -133.71899414 10.95214844 C-129.84442462 8.16124566 -125.99256802 5.34608182 -122.17578125 2.4765625 C-83.7580392 -26.23160855 -39.11084691 -29.5405831 0 0 Z " fill="#33B6B9" transform="translate(1469.76171875,529.0859375)"/>
<path d="M0 0 C1.6958686 1.64287271 3.35483453 3.3068005 5 5 C5.58136719 5.59683594 6.16273438 6.19367187 6.76171875 6.80859375 C53.09935399 56.52991026 63.69535969 136.97592972 61.69567871 202.03236389 C61.02997413 215.34796141 56.59265163 226.83653192 51.45217896 238.98616028 C48.35069676 246.36627328 46.03569943 253.94188105 43.8125 261.625 C43.61041931 262.31809265 43.40833862 263.0111853 43.20013428 263.72528076 C31.17873109 305.21936367 23.65234518 347.98003522 20 391 C19.91378891 392.01390305 19.82757782 393.02780609 19.73875427 394.07243347 C19.03749807 402.99207649 18.80757952 411.88185715 18.76171875 420.82421875 C18.75442151 421.92283045 18.75442151 421.92283045 18.74697685 423.04363632 C18.71061338 428.59158528 18.69427472 434.13944158 18.6875 439.6875 C18.68634941 440.50416515 18.68519882 441.32083031 18.68401337 442.16224289 C18.65809957 468.64422971 19.42683693 494.72489058 23 521 C23.11361877 521.85346008 23.22723755 522.70692017 23.34429932 523.58624268 C28.10863217 559.34054101 34.80426925 594.86943197 44.66601562 629.59521484 C46.1051293 634.78974139 46.1051293 634.78974139 45 637 C27.86697764 611.1924051 12.64234213 584.41391179 -1.51953125 556.87744141 C-2.47456031 555.02124542 -3.43266828 553.16662878 -4.39453125 551.31396484 C-43.68407304 475.52308002 -68.29378773 391.2505423 -80.70477295 306.98278809 C-80.90346941 305.64831356 -81.10821514 304.31472726 -81.31866455 302.98205566 C-82.86282375 293.15139204 -83.06634529 283.93502463 -82 274 C-81.87834473 272.80826172 -81.75668945 271.61652344 -81.63134766 270.38867188 C-81.22795468 266.67044101 -80.7802029 262.96067925 -80.3125 259.25 C-80.22730103 258.57391693 -80.14210205 257.89783386 -80.05432129 257.20126343 C-70.4223937 181.46656107 -49.76992651 107.64257478 0 0 Z " fill="#2E3F70" transform="translate(176,681)"/>
<path d="M0 0 C35 0 35 0 42.5 6.125 C44.875 10.0078125 44.875 10.0078125 45.91796875 12.02441406 C47.72223281 15.31866153 50.12734024 18.10342075 52.5 21 C53.40427175 22.15995789 54.30661323 23.32142311 55.20703125 24.484375 C58.58085618 28.77811594 62.15047436 32.89704602 65.72387695 37.0246582 C69.27561514 41.13325882 72.7088739 45.31783229 76.078125 49.578125 C79.66376736 54.09661741 83.34123694 58.54068708 87 63 C88.50028317 64.83310162 90.00028408 66.66643427 91.5 68.5 C92.2425 69.4075 92.985 70.315 93.75 71.25 C100.5 79.5 100.5 79.5 102.73828125 82.23828125 C104.27395979 84.11345349 105.81314768 85.98575614 107.35546875 87.85546875 C108.12503906 88.79003906 108.89460937 89.72460938 109.6875 90.6875 C110.37199219 91.51636719 111.05648437 92.34523438 111.76171875 93.19921875 C114.58854108 96.73644669 117.28319192 100.37758923 120 104 C120.33 69.68 120.66 35.36 121 0 C134.53 0 148.06 0 162 0 C162 58.08 162 116.16 162 176 C150.45 176 138.9 176 127 176 C114.81265509 161.59677419 114.81265509 161.59677419 110.5625 156.0625 C106.3628508 150.64379443 101.97475436 145.42601068 97.48071289 140.25024414 C94.0307012 136.25651996 90.73147816 132.17197865 87.5 128 C83.24657401 122.50942368 78.80988644 117.21321567 74.26513672 111.9621582 C70.83373852 107.99192238 67.51741266 103.95141772 64.265625 99.83203125 C60.60218677 95.25273347 56.84845415 90.74732074 53.09814453 86.23901367 C52.52692871 85.54912354 51.95571289 84.8592334 51.3671875 84.1484375 C50.86300293 83.54177246 50.35881836 82.93510742 49.83935547 82.31005859 C47.1501063 78.93261293 44.59038841 75.45385121 42 72 C41.67 106.32 41.34 140.64 41 176 C27.47 176 13.94 176 0 176 C0 117.92 0 59.84 0 0 Z " fill="#FFFFFF" transform="translate(420,1850)"/>
<path d="M0 0 C11.88 0 23.76 0 36 0 C38.64 3.3 41.28 6.6 44 10 C45.47498113 11.81590775 46.95322899 13.62917762 48.4375 15.4375 C49.19546875 16.36175781 49.9534375 17.28601562 50.734375 18.23828125 C51.48203125 19.14964844 52.2296875 20.06101562 53 21 C54.39596765 22.70822358 55.79179898 24.41655857 57.1875 26.125 C61.11445511 30.92537595 65.05606968 35.71356475 69 40.5 C74.34685204 46.98905001 79.68056318 53.48844833 85 60 C86.49985696 61.83345036 87.9998594 63.66678171 89.5 65.5 C98.5 76.5 98.5 76.5 100.74609375 79.24609375 C102.25798227 81.09337522 103.77101749 82.93971875 105.28515625 84.78515625 C106.03667969 85.70167969 106.78820312 86.61820313 107.5625 87.5625 C108.22378906 88.36816406 108.88507813 89.17382812 109.56640625 90.00390625 C113.06894098 94.31601562 116.52959344 98.6619918 120 103 C120.33 69.01 120.66 35.02 121 0 C134.53 0 148.06 0 162 0 C162 57.75 162 115.5 162 175 C150.45 175 138.9 175 127 175 C121.79061648 169.21179609 116.80512063 163.6156528 112.0078125 157.5390625 C105.52419338 149.33993327 98.80094938 141.32627777 92.15380859 133.25952148 C88.22758726 128.49393398 84.31308387 123.71899817 80.40625 118.9375 C77.27823833 115.11888835 74.13910745 111.3094917 71 107.5 C61.28367303 95.70646911 51.63604901 83.85975263 42 72 C41.67 105.99 41.34 139.98 41 175 C27.47 175 13.94 175 0 175 C0 117.25 0 59.5 0 0 Z " fill="#FFFFFF" transform="translate(21,1851)"/>
<path d="M0 0 C2.0558848 0.00314874 4.11030848 -0.02035102 6.16601562 -0.0456543 C31.83830027 -0.1688076 55.74960394 8.95929911 74.13476562 27.08911133 C74.85664062 27.82387695 75.57851562 28.55864258 76.32226562 29.31567383 C74.99007879 32.3067109 73.56920394 34.27796124 71.16210938 36.48754883 C70.53699463 37.06617676 69.91187988 37.64480469 69.26782227 38.2409668 C68.60516357 38.84312012 67.94250488 39.44527344 67.25976562 40.06567383 C66.58743896 40.68458496 65.9151123 41.30349609 65.22241211 41.94116211 C60.30611163 46.45539694 55.35130564 50.92718904 50.32226562 55.31567383 C49.84917969 54.9521582 49.37609375 54.58864258 48.88867188 54.21411133 C46.71426378 52.56105254 44.52278599 50.93381192 42.32226562 49.31567383 C41.27619141 48.54416992 41.27619141 48.54416992 40.20898438 47.75708008 C26.48692751 38.09895961 10.80229253 34.22604922 -5.7890625 36.62036133 C-18.76001877 38.9941311 -30.88284485 44.18627639 -39.67773438 54.31567383 C-49.85990417 69.25903335 -53.89620191 85.17343124 -50.61523438 103.12817383 C-47.4714507 116.57412186 -40.982932 128.30420214 -29.36523438 136.06567383 C-14.63208284 144.9015393 1.99823792 147.97067748 18.80615234 143.97827148 C21.99752496 143.15287772 25.16119152 142.25001504 28.32226562 141.31567383 C31.78726562 140.32567383 31.78726562 140.32567383 35.32226562 139.31567383 C35.32226562 122.15567383 35.32226562 104.99567383 35.32226562 87.31567383 C47.53226563 87.31567383 59.74226563 87.31567383 72.32226562 87.31567383 C72.88378896 105.17300705 72.88378896 105.17300705 73.00585938 112.82543945 C73.08935615 118.03492511 73.18774541 123.24094525 73.37841797 128.44775391 C73.53131811 132.64971552 73.61438624 136.84796257 73.65054703 141.05249214 C73.67628601 142.65052381 73.72656437 144.24836632 73.80248642 145.84480095 C74.35506395 157.95316183 74.35506395 157.95316183 70.99713898 161.85573196 C67.18404535 165.10186407 62.86945403 167.28420815 58.32226562 169.31567383 C57.68457119 169.61129652 57.04687675 169.90691921 56.38985825 170.21150017 C29.21351657 182.7251938 -6.27335335 186.91503504 -34.77832031 176.55200195 C-49.19854386 171.06797713 -60.73504372 163.08517081 -71.67773438 152.31567383 C-72.66580078 151.3643457 -72.66580078 151.3643457 -73.67382812 150.39379883 C-89.62365794 133.74409196 -95.25346506 109.38232263 -94.86132812 87.03051758 C-93.55901966 60.67955261 -83.41030536 39.73896696 -64.18164062 22.01489258 C-45.94702356 6.59481411 -23.59365728 -0.07519225 0 0 Z " fill="#FFFFFF" transform="translate(1259.677734375,1847.684326171875)"/>
<path d="M0 0 C43.89 0 87.78 0 133 0 C133 10.89 133 21.78 133 33 C102.64 33 72.28 33 41 33 C41 45.21 41 57.42 41 70 C68.06 70 95.12 70 123 70 C123 80.56 123 91.12 123 102 C95.94 102 68.88 102 41 102 C41 115.2 41 128.4 41 142 C72.68 142 104.36 142 137 142 C137 152.89 137 163.78 137 175 C91.79 175 46.58 175 0 175 C0 117.25 0 59.5 0 0 Z " fill="#FFFFFF" transform="translate(622,1851)"/>
<path d="M0 0 C13.53 0 27.06 0 41 0 C41.01458252 3.03638672 41.02916504 6.07277344 41.04418945 9.20117188 C41.09475997 19.28741512 41.16139336 29.3735076 41.23571491 39.45960236 C41.28024566 45.56859491 41.31953905 51.67752343 41.34643555 57.78662109 C41.3726421 63.69362126 41.41316463 69.60037263 41.46318626 75.50721741 C41.47973848 77.74915955 41.49132462 79.99114461 41.49761391 82.23313904 C41.26032453 109.15941817 41.26032453 109.15941817 52.59375 132.9296875 C60.89344568 140.79873859 72.27480917 142.40319277 83.234375 142.265625 C93.14416757 141.56659399 100.810347 138.58147457 107.90625 131.5546875 C116.01577697 121.65985421 117.29145329 109.3015191 117.31884766 96.95068359 C117.32889328 95.89583771 117.3389389 94.84099182 117.34928894 93.75418091 C117.37993286 90.30227148 117.39710359 86.85043893 117.4140625 83.3984375 C117.43278927 80.99133654 117.45236379 78.58424204 117.4727478 76.17715454 C117.52391548 69.86769431 117.56362327 63.55821283 117.60089111 57.24865723 C117.64102734 50.79983327 117.69207568 44.35109654 117.7421875 37.90234375 C117.83876483 25.26828456 117.92221807 12.6341889 118 0 C131.53 0 145.06 0 159 0 C159.06801949 14.32664951 159.12295625 28.65319018 159.15543652 42.97996521 C159.17103245 49.63384885 159.19215884 56.28758412 159.22631836 62.94140625 C159.25912941 69.37347551 159.27689859 75.80543279 159.28463173 82.23757935 C159.29013642 84.68052938 159.30088469 87.12347391 159.31719017 89.56637573 C159.46362505 112.43349708 157.852319 132.81754956 144 152 C143.23429687 153.06154297 143.23429687 153.06154297 142.453125 154.14453125 C135.15126106 163.30800902 123.93440021 170.1172887 113 174 C111.36417969 174.5878125 111.36417969 174.5878125 109.6953125 175.1875 C86.4501447 182.03270279 57.08367636 180.40707127 35.60888672 169.26660156 C19.86392987 160.57945674 9.09505579 147.42345408 3.84765625 130.22265625 C1.0655055 120.34414533 -0.14952036 111.15723092 -0.11352539 100.92407227 C-0.11367142 99.83065018 -0.11381744 98.73722809 -0.1139679 97.610672 C-0.11327371 94.01256292 -0.10550443 90.41450623 -0.09765625 86.81640625 C-0.09579032 84.31534351 -0.09436724 81.8142804 -0.09336853 79.31321716 C-0.08994629 73.41314111 -0.08207245 67.51308427 -0.07201904 61.61301607 C-0.05971727 54.23224842 -0.0543681 46.85147842 -0.04882812 39.47070312 C-0.03811515 26.31379076 -0.02052953 13.15690071 0 0 Z " fill="#FFFFFF" transform="translate(222,1851)"/>
<path d="M0 0 C48.84 0 97.68 0 148 0 C148 28 148 28 140 37 C138.61017508 38.65432447 137.23235134 40.31892888 135.875 42 C134.75351562 43.38058594 134.75351562 43.38058594 133.609375 44.7890625 C133.20009766 45.2934082 132.79082031 45.79775391 132.36914062 46.31738281 C129.63314648 49.67980643 126.87908194 53.02738833 124.125 56.375 C123.52308838 57.1069458 122.92117676 57.8388916 122.30102539 58.59301758 C118.6766445 62.99157599 115.01361458 67.35344118 111.3125 71.6875 C107.63316444 75.9978844 104.09611988 80.39555193 100.625 84.875 C96.2196312 90.55824996 91.58086574 95.99231635 86.83642578 101.39404297 C82.7762527 106.04093931 78.94923078 110.82718431 75.17944336 115.71069336 C70.19788135 122.11763397 64.84694528 128.19921959 59.47290039 134.27758789 C57.59497065 136.47364198 55.8050632 138.743671 54 141 C102.51 141.495 102.51 141.495 152 142 C152 152.89 152 163.78 152 175 C101.18 175 50.36 175 -2 175 C-2 148 -2 148 1.8125 141.625 C3.51058121 140.04915938 5.24162738 138.50827027 7 137 C8.86764453 134.95801452 10.61632087 132.82342035 12.375 130.6875 C13.31206374 129.58426472 14.24956725 128.48140283 15.1875 127.37890625 C18.00363898 124.02696182 20.69461102 120.5857923 23.375 117.125 C27.83279096 111.37679587 32.51739424 105.86456513 37.30639648 100.390625 C41.14876722 95.99608121 44.88909462 91.53422646 48.56640625 87 C55.89259072 77.96868432 63.28213343 68.98693941 70.8125 60.125 C78.08316395 51.56739952 85.10456848 42.86555481 92 34 C61.64 33.67 31.28 33.34 0 33 C0 22.11 0 11.22 0 0 Z " fill="#FFFFFF" transform="translate(780,1851)"/>
<path d="M0 0 C0.74995239 0.00021149 1.49990479 0.00042297 2.27258301 0.00064087 C14.39597943 0.03471713 25.88098254 0.88680804 37.5625 4.375 C38.22604492 4.57287109 38.88958984 4.77074219 39.57324219 4.97460938 C47.2649277 7.35491065 54.48963519 10.54522297 61.5625 14.375 C61.05666092 21.49804005 58.29560356 27.6877315 55.625 34.25 C55.16931641 35.40242188 54.71363281 36.55484375 54.24414062 37.7421875 C50.81931178 46.24659411 50.81931178 46.24659411 48.5625 47.375 C46.32214371 46.39617405 44.17487782 45.35905467 42 44.25 C36.31203596 41.46881444 30.64431659 39.26337091 24.5625 37.5 C23.86954834 37.29745605 23.17659668 37.09491211 22.46264648 36.88623047 C7.89536715 32.81547055 -10.29695679 31.94256614 -23.9375 39.25 C-28.08619796 42.77639327 -30.51415693 45.35438865 -31.375 50.8125 C-31.6494985 55.16835776 -31.12108419 57.79688775 -28.4375 61.375 C-23.27822511 65.33883314 -17.83785522 67.52452677 -11.625 69.25 C-10.77752197 69.4962915 -9.93004395 69.74258301 -9.05688477 69.99633789 C-2.85458631 71.77151484 3.39177314 73.35833698 9.6472168 74.93383789 C52.18202068 85.68025833 52.18202068 85.68025833 64.5625 103.375 C70.85072839 115.62242157 71.48046698 130.34029 67.66796875 143.49609375 C61.67233638 159.11016109 51.10274179 167.72748223 36.5 175.0625 C22.85918178 180.77612982 9.62982112 181.76041108 -5 181.8125 C-5.7336377 181.8186734 -6.46727539 181.8248468 -7.22314453 181.83120728 C-30.47648172 181.95677997 -57.84316769 177.45654913 -76.4375 162.375 C-75.52697773 155.55116261 -72.82594073 149.81567038 -70.0625 143.5625 C-69.5675 142.40556641 -69.0725 141.24863281 -68.5625 140.05664062 C-68.08039063 138.95900391 -67.59828125 137.86136719 -67.1015625 136.73046875 C-66.66279785 135.72653076 -66.2240332 134.72259277 -65.77197266 133.68823242 C-64.4375 131.375 -64.4375 131.375 -61.4375 130.375 C-58.6796875 131.81640625 -58.6796875 131.81640625 -55.3125 133.9375 C-35.97313511 145.5375536 -11.01965586 151.101989 11.25 146.1875 C17.81124563 144.21177478 22.93268132 141.99258757 26.625 136.0625 C27.71573165 131.77228885 27.9787469 128.58811185 26.5625 124.375 C20.52135524 115.9953476 9.00923917 113.37984231 -0.5 111 C-2.80094978 110.39777896 -5.10172661 109.79489682 -7.40234375 109.19140625 C-10.87423844 108.2930637 -14.34698608 107.39821305 -17.82080078 106.50732422 C-57.41447175 96.27433265 -57.41447175 96.27433265 -68.1171875 78.93359375 C-74.62807321 66.31634481 -75.48817964 51.83201034 -71.5390625 38.25 C-66.01584678 23.83479869 -56.21144213 14.10768804 -42.4375 7.375 C-28.6716354 1.48660751 -14.83189889 -0.0385631 0 0 Z " fill="#FFFFFF" transform="translate(1514.4375,1847.625)"/>
<path d="M0 0 C18.17946196 -0.52440756 38.60470942 3.24897098 52.28125 15.94140625 C58.69593225 22.92247729 60.57709254 29.47828737 60.21484375 38.9296875 C58.84408654 50.74705755 51.30762758 59.62743986 42.38378906 67.05175781 C21.19220583 83.77515835 -5.33369111 90.29170452 -31.84375 90.50390625 C-33.64259644 90.52493408 -33.64259644 90.52493408 -35.4777832 90.54638672 C-51.55858849 90.46049322 -68.5632353 86.72302973 -81.15625 76.12890625 C-86.80464403 70.28232295 -89.65398016 63.73304648 -90.53125 55.69140625 C-89.06994478 41.80900665 -81.56209952 32.03585224 -71.15625 23.12890625 C-49.97461948 7.88913572 -25.73898877 1.53874389 0 0 Z " fill="#1C89C8" transform="translate(865.15625,-0.12890625)"/>
<path d="M0 0 C12.21 0 24.42 0 37 0 C37 77.55 37 155.1 37 235 C24.79 235 12.58 235 0 235 C0 157.45 0 79.9 0 0 Z " fill="#FFFFFF" transform="translate(1028,1840)"/>
<path d="M0 0 C13.86 0 27.72 0 42 0 C42 57.75 42 115.5 42 175 C28.14 175 14.28 175 0 175 C0 117.25 0 59.5 0 0 Z " fill="#FFFFFF" transform="translate(1369,1851)"/>
<path d="M0 0 C0.68578125 -0.02578125 1.3715625 -0.0515625 2.078125 -0.078125 C11.27847534 1.05174259 17.88349275 5.76378456 25.17578125 11.13085938 C29.83803525 14.41690587 32.82713403 16.11839012 38.75 15.25 C44.36247147 12.18865193 44.27673426 9.84537532 46.75 3.25 C53.35 3.25 59.95 3.25 66.75 3.25 C66.75 14.19058575 65.51874708 22.94704555 58.46484375 31.5625 C51.99034871 37.93375707 45.13809868 39.67006784 36.28857422 39.77563477 C26.11295719 39.5295785 18.32851484 34.23685486 10.3125 28.3125 C7.19580826 26.04395716 5.83548156 25.26541471 1.9375 24.5625 C-2.00516027 25.41287771 -3.57660995 26.20530578 -6.25 29.25 C-7.24 32.22 -8.23 35.19 -9.25 38.25 C-16.18 38.25 -23.11 38.25 -30.25 38.25 C-28.93159335 26.05473847 -27.22066069 15.31945651 -18.25 6.25 C-12.53159127 2.17841216 -7.03453047 0.1563229 0 0 Z " fill="#FFFFFF" transform="translate(482.25,1797.75)"/>
</svg>
